<?xml version="1.0" encoding="utf-8"?><!-- Uploaded to: SVG Repo, www.svgrepo.com, Generator: SVG Repo Mixer Tools -->
<svg fill="#000000" width="800px" height="800px" viewBox="0 0 24 24" id="storm" xmlns="http://www.w3.org/2000/svg" class="icon multi-color"><title style="stroke-width: 2;">storm</title><path id="secondary-fill" d="M20.7,10.49A4,4,0,0,1,18,12.87l-4.71.05V10l-2.13,2.94L6,13a3,3,0,0,1-2.59-1.49,2.74,2.74,0,0,1,.71-.84A3,3,0,0,1,6,10a3,3,0,0,1,1.08.21,5,5,0,0,1,9-2.09A4.08,4.08,0,0,1,17,8a4,4,0,0,1,3,1.34A3.84,3.84,0,0,1,20.7,10.49Z" style="fill: rgb(44, 169, 188); stroke-width: 2;"></path><path id="primary-stroke" d="M6,13A3,3,0,1,1,7.08,7.21a5,5,0,0,1,9-2.09A4.08,4.08,0,0,1,17,5a4,4,0,0,1,1,7.87M9,15.92l2.57.85V21L15,15.08l-1.71-.85V10Z" style="fill: none; stroke: rgb(0, 0, 0); stroke-linecap: round; stroke-linejoin: round; stroke-width: 2;"></path></svg>